<svg xmlns="http://www.w3.org/2000/svg" xmlns:xlink="http://www.w3.org/1999/xlink" width="116" height="116" viewBox="0 0 116 116">
  <defs>
    <linearGradient id="linear-gradient" x1="0.164" y1="0.016" x2="0.873" y2="1" gradientUnits="objectBoundingBox">
      <stop offset="0" stop-color="#e3e9ed"/>
      <stop offset="0.969" stop-color="#fdfefe"/>
      <stop offset="1" stop-color="#fcfdfd"/>
    </linearGradient>
    <filter id="Rectangle_140" x="6" y="6" width="110" height="110" filterUnits="userSpaceOnUse">
      <feOffset dx="3" dy="3" input="SourceAlpha"/>
      <feGaussianBlur stdDeviation="5" result="blur"/>
      <feFlood flood-color="#dae1eb"/>
      <feComposite operator="in" in2="blur"/>
      <feComposite in="SourceGraphic"/>
    </filter>
    <filter id="Rectangle_141" x="0" y="0" width="110" height="110" filterUnits="userSpaceOnUse">
      <feOffset dx="-3" dy="-3" input="SourceAlpha"/>
      <feGaussianBlur stdDeviation="5" result="blur-2"/>
      <feFlood flood-color="#f4f6f9" flood-opacity="0.941"/>
      <feComposite operator="in" in2="blur-2"/>
      <feComposite in="SourceGraphic"/>
    </filter>
  </defs>
  <g id="Group_4298" data-name="Group 4298" transform="translate(-755 -3379)">
    <g id="short_shape" data-name="short shape" transform="translate(773 3397)">
      <g transform="matrix(1, 0, 0, 1, -18, -18)" filter="url(#Rectangle_140)">
        <rect id="Rectangle_140-2" data-name="Rectangle 140" width="80" height="80" rx="40" transform="translate(18 18)" fill="url(#linear-gradient)"/>
      </g>
      <g transform="matrix(1, 0, 0, 1, -18, -18)" filter="url(#Rectangle_141)">
        <rect id="Rectangle_141-2" data-name="Rectangle 141" width="80" height="80" rx="40" transform="translate(18 18)" fill="url(#linear-gradient)"/>
      </g>
    </g>
    <path id="Icon_awesome-facebook-f" data-name="Icon awesome-facebook-f" d="M15.015,16.875l.833-5.429h-5.21V7.922A2.715,2.715,0,0,1,13.7,4.989h2.368V.367A28.882,28.882,0,0,0,11.863,0C7.573,0,4.769,2.6,4.769,7.308v4.138H0v5.429H4.769V30h5.869V16.875Z" transform="translate(804.966 3422)"/>
  </g>
</svg>
