<svg xmlns="http://www.w3.org/2000/svg" xmlns:xlink="http://www.w3.org/1999/xlink" width="116" height="116" viewBox="0 0 116 116">
  <defs>
    <linearGradient id="linear-gradient" x1="0.164" y1="0.016" x2="0.873" y2="1" gradientUnits="objectBoundingBox">
      <stop offset="0" stop-color="#e3e9ed"/>
      <stop offset="0.969" stop-color="#fdfefe"/>
      <stop offset="1" stop-color="#fcfdfd"/>
    </linearGradient>
    <filter id="Rectangle_140" x="6" y="6" width="110" height="110" filterUnits="userSpaceOnUse">
      <feOffset dx="3" dy="3" input="SourceAlpha"/>
      <feGaussianBlur stdDeviation="5" result="blur"/>
      <feFlood flood-color="#dae1eb"/>
      <feComposite operator="in" in2="blur"/>
      <feComposite in="SourceGraphic"/>
    </filter>
    <filter id="Rectangle_141" x="0" y="0" width="110" height="110" filterUnits="userSpaceOnUse">
      <feOffset dx="-3" dy="-3" input="SourceAlpha"/>
      <feGaussianBlur stdDeviation="5" result="blur-2"/>
      <feFlood flood-color="#f4f6f9" flood-opacity="0.941"/>
      <feComposite operator="in" in2="blur-2"/>
      <feComposite in="SourceGraphic"/>
    </filter>
  </defs>
  <g id="Group_4300" data-name="Group 4300" transform="translate(-755 -3503)">
    <g id="short_shape" data-name="short shape" transform="translate(773 3521)">
      <g transform="matrix(1, 0, 0, 1, -18, -18)" filter="url(#Rectangle_140)">
        <rect id="Rectangle_140-2" data-name="Rectangle 140" width="80" height="80" rx="40" transform="translate(18 18)" fill="url(#linear-gradient)"/>
      </g>
      <g transform="matrix(1, 0, 0, 1, -18, -18)" filter="url(#Rectangle_141)">
        <rect id="Rectangle_141-2" data-name="Rectangle 141" width="80" height="80" rx="40" transform="translate(18 18)" fill="url(#linear-gradient)"/>
      </g>
    </g>
    <path id="Icon_awesome-instagram" data-name="Icon awesome-instagram" d="M15.007,7.308A7.692,7.692,0,1,0,22.7,15,7.679,7.679,0,0,0,15.007,7.308Zm0,12.692a5,5,0,1,1,5-5A5.01,5.01,0,0,1,15.007,20Zm9.8-13.007A1.794,1.794,0,1,1,23.013,5.2,1.79,1.79,0,0,1,24.807,6.994ZM29.9,8.815a8.878,8.878,0,0,0-2.423-6.286A8.937,8.937,0,0,0,21.192.105c-2.477-.141-9.9-.141-12.378,0A8.924,8.924,0,0,0,2.529,2.522,8.907,8.907,0,0,0,.105,8.808c-.141,2.477-.141,9.9,0,12.378a8.878,8.878,0,0,0,2.423,6.286,8.948,8.948,0,0,0,6.286,2.423c2.477.141,9.9.141,12.378,0a8.878,8.878,0,0,0,6.286-2.423A8.937,8.937,0,0,0,29.9,21.185c.141-2.477.141-9.894,0-12.371ZM26.7,23.843a5.063,5.063,0,0,1-2.852,2.852c-1.975.783-6.661.6-8.843.6s-6.875.174-8.843-.6a5.063,5.063,0,0,1-2.852-2.852c-.783-1.975-.6-6.661-.6-8.843s-.174-6.875.6-8.843A5.063,5.063,0,0,1,6.164,3.305c1.975-.783,6.661-.6,8.843-.6s6.875-.174,8.843.6A5.063,5.063,0,0,1,26.7,6.157c.783,1.975.6,6.661.6,8.843S27.485,21.875,26.7,23.843Z" transform="translate(798 3546)"/>
  </g>
</svg>
