<svg xmlns="http://www.w3.org/2000/svg" xmlns:xlink="http://www.w3.org/1999/xlink" width="116" height="116" viewBox="0 0 116 116">
  <defs>
    <linearGradient id="linear-gradient" x1="0.164" y1="0.016" x2="0.873" y2="1" gradientUnits="objectBoundingBox">
      <stop offset="0" stop-color="#e3e9ed"/>
      <stop offset="0.969" stop-color="#fdfefe"/>
      <stop offset="1" stop-color="#fcfdfd"/>
    </linearGradient>
    <filter id="Rectangle_140" x="6" y="6" width="110" height="110" filterUnits="userSpaceOnUse">
      <feOffset dx="3" dy="3" input="SourceAlpha"/>
      <feGaussianBlur stdDeviation="5" result="blur"/>
      <feFlood flood-color="#dae1eb"/>
      <feComposite operator="in" in2="blur"/>
      <feComposite in="SourceGraphic"/>
    </filter>
    <filter id="Rectangle_141" x="0" y="0" width="110" height="110" filterUnits="userSpaceOnUse">
      <feOffset dx="-3" dy="-3" input="SourceAlpha"/>
      <feGaussianBlur stdDeviation="5" result="blur-2"/>
      <feFlood flood-color="#f4f6f9" flood-opacity="0.941"/>
      <feComposite operator="in" in2="blur-2"/>
      <feComposite in="SourceGraphic"/>
    </filter>
  </defs>
  <g id="Group_4301" data-name="Group 4301" transform="translate(-567 -3503)">
    <g id="short_shape" data-name="short shape" transform="translate(585 3521)">
      <g transform="matrix(1, 0, 0, 1, -18, -18)" filter="url(#Rectangle_140)">
        <rect id="Rectangle_140-2" data-name="Rectangle 140" width="80" height="80" rx="40" transform="translate(18 18)" fill="url(#linear-gradient)"/>
      </g>
      <g transform="matrix(1, 0, 0, 1, -18, -18)" filter="url(#Rectangle_141)">
        <rect id="Rectangle_141-2" data-name="Rectangle 141" width="80" height="80" rx="40" transform="translate(18 18)" fill="url(#linear-gradient)"/>
      </g>
    </g>
    <path id="Icon_awesome-linkedin-in" data-name="Icon awesome-linkedin-in" d="M6.715,30H.5V9.971h6.22ZM3.6,7.238A3.619,3.619,0,1,1,7.2,3.6,3.632,3.632,0,0,1,3.6,7.238ZM29.994,30H23.788V20.25c0-2.324-.047-5.3-3.234-5.3-3.234,0-3.729,2.525-3.729,5.136V30H10.611V9.971h5.965V12.7h.087a6.536,6.536,0,0,1,5.885-3.234C28.844,9.468,30,13.613,30,19V30Z" transform="translate(610 3546)"/>
  </g>
</svg>
