<svg xmlns="http://www.w3.org/2000/svg" xmlns:xlink="http://www.w3.org/1999/xlink" width="116" height="116" viewBox="0 0 116 116">
  <defs>
    <linearGradient id="linear-gradient" x1="0.164" y1="0.016" x2="0.873" y2="1" gradientUnits="objectBoundingBox">
      <stop offset="0" stop-color="#e3e9ed"/>
      <stop offset="0.969" stop-color="#fdfefe"/>
      <stop offset="1" stop-color="#fcfdfd"/>
    </linearGradient>
    <filter id="Rectangle_140" x="6" y="6" width="110" height="110" filterUnits="userSpaceOnUse">
      <feOffset dx="3" dy="3" input="SourceAlpha"/>
      <feGaussianBlur stdDeviation="5" result="blur"/>
      <feFlood flood-color="#dae1eb"/>
      <feComposite operator="in" in2="blur"/>
      <feComposite in="SourceGraphic"/>
    </filter>
    <filter id="Rectangle_141" x="0" y="0" width="110" height="110" filterUnits="userSpaceOnUse">
      <feOffset dx="-3" dy="-3" input="SourceAlpha"/>
      <feGaussianBlur stdDeviation="5" result="blur-2"/>
      <feFlood flood-color="#f4f6f9" flood-opacity="0.941"/>
      <feComposite operator="in" in2="blur-2"/>
      <feComposite in="SourceGraphic"/>
    </filter>
  </defs>
  <g id="Group_4303" data-name="Group 4303" transform="translate(-840 -3419)">
    <g id="Group_4302" data-name="Group 4302" transform="translate(85 40)">
      <g id="short_shape" data-name="short shape" transform="translate(773 3397)">
        <g transform="matrix(1, 0, 0, 1, -18, -18)" filter="url(#Rectangle_140)">
          <rect id="Rectangle_140-2" data-name="Rectangle 140" width="80" height="80" rx="40" transform="translate(18 18)" fill="url(#linear-gradient)"/>
        </g>
        <g transform="matrix(1, 0, 0, 1, -18, -18)" filter="url(#Rectangle_141)">
          <rect id="Rectangle_141-2" data-name="Rectangle 141" width="80" height="80" rx="40" transform="translate(18 18)" fill="url(#linear-gradient)"/>
        </g>
      </g>
    </g>
    <path id="Icon_simple-tiktok" data-name="Icon simple-tiktok" d="M15.834.025C17.445,0,19.043.012,20.642,0a7.659,7.659,0,0,0,2.152,5.127,8.671,8.671,0,0,0,5.213,2.2v4.955a13.161,13.161,0,0,1-5.164-1.193,15.192,15.192,0,0,1-1.992-1.144c-.012,3.59.012,7.181-.025,10.759a9.392,9.392,0,0,1-1.66,4.845A9.161,9.161,0,0,1,11.9,29.5a8.966,8.966,0,0,1-5.017-1.266,9.272,9.272,0,0,1-4.488-7.021c-.025-.615-.037-1.23-.012-1.832a9.257,9.257,0,0,1,10.734-8.214c.025,1.82-.049,3.64-.049,5.459a4.219,4.219,0,0,0-5.386,2.607,4.878,4.878,0,0,0-.172,1.98,4.185,4.185,0,0,0,4.3,3.529,4.131,4.131,0,0,0,3.406-1.98,2.837,2.837,0,0,0,.5-1.3c.123-2.2.074-4.39.086-6.591.012-4.955-.012-9.9.025-14.841Z" transform="translate(882.812 3462.245)"/>
  </g>
</svg>
