<svg xmlns="http://www.w3.org/2000/svg" xmlns:xlink="http://www.w3.org/1999/xlink" width="116" height="116" viewBox="0 0 116 116">
  <defs>
    <linearGradient id="linear-gradient" x1="0.164" y1="0.016" x2="0.873" y2="1" gradientUnits="objectBoundingBox">
      <stop offset="0" stop-color="#e3e9ed"/>
      <stop offset="0.969" stop-color="#fdfefe"/>
      <stop offset="1" stop-color="#fcfdfd"/>
    </linearGradient>
    <filter id="Rectangle_140" x="6" y="6" width="110" height="110" filterUnits="userSpaceOnUse">
      <feOffset dx="3" dy="3" input="SourceAlpha"/>
      <feGaussianBlur stdDeviation="5" result="blur"/>
      <feFlood flood-color="#dae1eb"/>
      <feComposite operator="in" in2="blur"/>
      <feComposite in="SourceGraphic"/>
    </filter>
    <filter id="Rectangle_141" x="0" y="0" width="110" height="110" filterUnits="userSpaceOnUse">
      <feOffset dx="-3" dy="-3" input="SourceAlpha"/>
      <feGaussianBlur stdDeviation="5" result="blur-2"/>
      <feFlood flood-color="#f4f6f9" flood-opacity="0.941"/>
      <feComposite operator="in" in2="blur-2"/>
      <feComposite in="SourceGraphic"/>
    </filter>
  </defs>
  <g id="Group_4299" data-name="Group 4299" transform="translate(-567 -3379)">
    <g id="short_shape" data-name="short shape" transform="translate(585 3397)">
      <g transform="matrix(1, 0, 0, 1, -18, -18)" filter="url(#Rectangle_140)">
        <rect id="Rectangle_140-2" data-name="Rectangle 140" width="80" height="80" rx="40" transform="translate(18 18)" fill="url(#linear-gradient)"/>
      </g>
      <g transform="matrix(1, 0, 0, 1, -18, -18)" filter="url(#Rectangle_141)">
        <rect id="Rectangle_141-2" data-name="Rectangle 141" width="80" height="80" rx="40" transform="translate(18 18)" fill="url(#linear-gradient)"/>
      </g>
    </g>
    <path id="Icon_awesome-twitter" data-name="Icon awesome-twitter" d="M26.916,6.072c.019.266.019.533.019.8,0,8.128-6.187,17.494-17.494,17.494A17.375,17.375,0,0,1,0,21.605a12.719,12.719,0,0,0,1.485.076,12.314,12.314,0,0,0,7.633-2.627,6.159,6.159,0,0,1-5.749-4.264,7.754,7.754,0,0,0,1.161.1,6.5,6.5,0,0,0,1.618-.209,6.149,6.149,0,0,1-4.93-6.034V8.566A6.192,6.192,0,0,0,4,9.346a6.158,6.158,0,0,1-1.9-8.223A17.477,17.477,0,0,0,14.772,7.557a6.941,6.941,0,0,1-.152-1.409A6.154,6.154,0,0,1,25.26,1.942a12.105,12.105,0,0,0,3.9-1.485,6.132,6.132,0,0,1-2.7,3.388A12.326,12.326,0,0,0,30,2.893a13.217,13.217,0,0,1-3.084,3.179Z" transform="translate(610 3425)"/>
  </g>
</svg>
